# Blender 5.0.1
# www.blender.org
mtllib Laberinto.mtl
o Suelo
v -41.614944 0.191094 -42.146503
v 43.701973 0.182605 -42.146503
v -41.614944 0.191094 45.438534
v 43.701973 0.182605 45.438534
v -41.614960 0.003649 -42.146503
v 43.701958 -0.004840 -42.146503
v -41.614960 0.003649 45.438534
v 43.701958 -0.004840 45.438534
vn -1.0000 0.0001 -0.0000
vn -0.0000 -0.0000 1.0000
vn -0.0001 -1.0000 -0.0000
vn 1.0000 -0.0001 -0.0000
vn 0.0001 1.0000 -0.0000
vn -0.0000 -0.0000 -1.0000
vt 0.625000 0.500000
vt 0.875000 0.500000
vt 0.875000 0.750000
vt 0.625000 0.750000
vt 0.375000 0.750000
vt 0.625000 1.000000
vt 0.375000 1.000000
vt 0.375000 0.000000
vt 0.625000 0.000000
vt 0.625000 0.250000
vt 0.375000 0.250000
vt 0.125000 0.500000
vt 0.375000 0.500000
vt 0.125000 0.750000
s 0
usemtl Material.001
f 1/1/1 5/2/1 7/3/1 3/4/1
f 4/5/2 3/4/2 7/6/2 8/7/2
f 8/8/3 7/9/3 5/10/3 6/11/3
f 6/12/4 2/13/4 4/5/4 8/14/4
f 2/13/5 1/1/5 3/4/5 4/5/5
f 6/11/6 5/10/6 1/1/6 2/13/6
o Pared_Derecha.001
v -21.078442 9.630365 29.920782
v -21.078442 0.189970 29.920782
v -30.710419 9.630365 29.935276
v -30.710419 0.189970 29.935276
v -21.078159 9.630365 30.108227
v -21.078159 0.189970 30.108227
v -30.710136 9.630365 30.122721
v -30.710136 0.189970 30.122721
vn -0.0000 1.0000 -0.0000
vn -1.0000 -0.0000 0.0015
vn 0.0015 -0.0000 1.0000
vn -0.0000 -1.0000 -0.0000
vn -0.0015 -0.0000 -1.0000
vn 1.0000 -0.0000 -0.0015
vt 0.625000 0.500000
vt 0.875000 0.500000
vt 0.875000 0.750000
vt 0.625000 0.750000
vt 0.375000 0.750000
vt 0.625000 1.000000
vt 0.375000 1.000000
vt 0.375000 0.000000
vt 0.625000 0.000000
vt 0.625000 0.250000
vt 0.375000 0.250000
vt 0.125000 0.500000
vt 0.375000 0.500000
vt 0.125000 0.750000
s 0
usemtl Material.008
f 9/15/7 11/18/7 15/17/7 13/16/7
f 12/19/8 16/21/8 15/20/8 11/18/8
f 16/22/9 14/25/9 13/24/9 15/23/9
f 14/26/10 16/28/10 12/19/10 10/27/10
f 10/27/11 12/19/11 11/18/11 9/15/11
f 14/25/12 10/27/12 9/15/12 13/24/12
o Pared_Principio
v -29.783113 9.618900 -41.063412
v -29.783113 0.178504 -41.063412
v -29.783113 9.618900 45.083645
v -29.783113 0.178504 45.083645
v -30.744879 9.618900 -41.063412
v -30.744879 0.178504 -41.063412
v -30.744879 9.618900 45.083645
v -30.744879 0.178504 45.083645
v -30.744879 9.618900 37.332775
v -30.744879 9.618900 29.911249
v -29.783113 9.618900 37.332775
v -29.783113 9.618900 29.911249
v -30.744879 0.178504 37.332775
v -30.744879 0.178504 29.911249
v -29.783113 0.178504 37.332775
v -29.783113 0.178504 29.911249
vn -0.0000 1.0000 -0.0000
vn -0.0000 -0.0000 1.0000
vn -1.0000 -0.0000 -0.0000
vn -0.0000 -1.0000 -0.0000
vn 1.0000 -0.0000 -0.0000
vn -0.0000 -0.0000 -1.0000
vt 0.875000 0.727507
vt 0.875000 0.750000
vt 0.625000 0.750000
vt 0.625000 0.727507
vt 0.625000 0.705970
vt 0.625000 0.500000
vt 0.875000 0.500000
vt 0.875000 0.705970
vt 0.375000 0.750000
vt 0.625000 1.000000
vt 0.375000 1.000000
vt 0.625000 0.250000
vt 0.375000 0.250000
vt 0.375000 0.044031
vt 0.625000 0.044031
vt 0.375000 0.000000
vt 0.625000 0.000000
vt 0.625000 0.022493
vt 0.375000 0.022493
vt 0.125000 0.750000
vt 0.125000 0.727507
vt 0.375000 0.727507
vt 0.125000 0.705970
vt 0.125000 0.500000
vt 0.375000 0.500000
vt 0.375000 0.705970
vt 0.585629 0.842161
vt 0.585629 0.907839
vt 0.415752 0.907839
vt 0.415752 0.842161
vt 0.415752 0.407839
vt 0.415752 0.342161
vt 0.585629 0.342161
vt 0.585629 0.407839
s 0
usemtl Material.004
f 25/29/13 23/30/13 19/31/13 27/32/13
f 28/33/13 17/34/13 21/35/13 26/36/13
f 20/37/14 19/31/14 23/38/14 24/39/14
f 21/40/15 22/41/15 30/42/15 26/43/15
f 24/44/15 23/45/15 25/46/15 29/47/15
f 20/37/16 24/48/16 29/49/16 31/50/16
f 30/51/16 22/52/16 18/53/16 32/54/16
f 19/31/17 20/37/17 31/50/17 27/32/17
f 18/53/17 17/34/17 28/33/17 32/54/17
f 22/41/18 21/40/18 17/34/18 18/53/18
f 28/55/14 26/56/14 30/57/14 32/58/14
f 31/59/18 29/60/18 25/61/18 27/62/18
o Pared_Final
v 43.489098 9.630365 -41.063412
v 43.489098 0.189970 -41.063412
v 43.489098 9.630365 45.083645
v 43.489098 0.189970 45.083645
v 43.301651 9.630365 -41.063412
v 43.301651 0.189970 -41.063412
v 43.301651 9.630365 45.083645
v 43.301651 0.189970 45.083645
vn -0.0000 1.0000 -0.0000
vn -0.0000 -0.0000 1.0000
vn -1.0000 -0.0000 -0.0000
vn -0.0000 -1.0000 -0.0000
vn 1.0000 -0.0000 -0.0000
vn -0.0000 -0.0000 -1.0000
vt 0.625000 0.500000
vt 0.875000 0.500000
vt 0.875000 0.750000
vt 0.625000 0.750000
vt 0.375000 0.750000
vt 0.625000 1.000000
vt 0.375000 1.000000
vt 0.375000 0.000000
vt 0.625000 0.000000
vt 0.625000 0.250000
vt 0.375000 0.250000
vt 0.125000 0.500000
vt 0.375000 0.500000
vt 0.125000 0.750000
s 0
usemtl Material
f 33/63/19 37/64/19 39/65/19 35/66/19
f 36/67/20 35/66/20 39/68/20 40/69/20
f 40/70/21 39/71/21 37/72/21 38/73/21
f 38/74/22 34/75/22 36/67/22 40/76/22
f 34/75/23 33/63/23 35/66/23 36/67/23
f 38/73/24 37/72/24 33/63/24 34/75/24
o Pared_Izquierda
v -30.641981 9.630365 -41.312580
v -30.641981 0.189970 -41.312580
v 44.042885 9.630365 -41.424950
v 44.042885 0.189970 -41.424950
v -30.641394 9.630365 -40.922844
v -30.641394 0.189970 -40.922844
v 44.043472 9.630365 -41.035213
v 44.043472 0.189970 -41.035213
vn -0.0000 1.0000 -0.0000
vn 1.0000 -0.0000 -0.0015
vn 0.0015 -0.0000 1.0000
vn -0.0000 -1.0000 -0.0000
vn -0.0015 -0.0000 -1.0000
vn -1.0000 -0.0000 0.0015
vt 0.625000 0.500000
vt 0.875000 0.500000
vt 0.875000 0.750000
vt 0.625000 0.750000
vt 0.375000 0.750000
vt 0.625000 1.000000
vt 0.375000 1.000000
vt 0.375000 0.000000
vt 0.625000 0.000000
vt 0.625000 0.250000
vt 0.375000 0.250000
vt 0.125000 0.500000
vt 0.375000 0.500000
vt 0.125000 0.750000
s 0
usemtl Material.006
f 41/77/25 45/78/25 47/79/25 43/80/25
f 44/81/26 43/80/26 47/82/26 48/83/26
f 48/84/27 47/85/27 45/86/27 46/87/27
f 46/88/28 42/89/28 44/81/28 48/90/28
f 42/89/29 41/77/29 43/80/29 44/81/29
f 46/87/30 45/86/30 41/77/30 42/89/30
o Pared_Derecha
v -30.641691 9.630365 45.187588
v -30.641691 0.189970 45.187588
v 44.042900 9.630365 45.075218
v 44.042900 0.189970 45.075218
v -30.641409 9.630365 45.375031
v -30.641409 0.189970 45.375031
v 44.043182 9.630365 45.262661
v 44.043182 0.189970 45.262661
vn -0.0000 1.0000 -0.0000
vn 1.0000 -0.0000 -0.0015
vn 0.0015 -0.0000 1.0000
vn -0.0000 -1.0000 -0.0000
vn -0.0015 -0.0000 -1.0000
vn -1.0000 -0.0000 0.0015
vt 0.625000 0.500000
vt 0.875000 0.500000
vt 0.875000 0.750000
vt 0.625000 0.750000
vt 0.375000 0.750000
vt 0.625000 1.000000
vt 0.375000 1.000000
vt 0.375000 0.000000
vt 0.625000 0.000000
vt 0.625000 0.250000
vt 0.375000 0.250000
vt 0.125000 0.500000
vt 0.375000 0.500000
vt 0.125000 0.750000
s 0
usemtl Material.007
f 49/91/31 53/92/31 55/93/31 51/94/31
f 52/95/32 51/94/32 55/96/32 56/97/32
f 56/98/33 55/99/33 53/100/33 54/101/33
f 54/102/34 50/103/34 52/95/34 56/104/34
f 50/103/35 49/91/35 51/94/35 52/95/35
f 54/101/36 53/100/36 49/91/36 50/103/36
o Pared_Derecha.002
v -8.006047 9.630365 29.920782
v -8.006047 0.189970 29.920782
v -17.638027 9.630365 29.935276
v -17.638027 0.189970 29.935276
v -8.005765 9.630365 30.108227
v -8.005765 0.189970 30.108227
v -17.637745 9.630365 30.122721
v -17.637745 0.189970 30.122721
vn -0.0000 1.0000 -0.0000
vn -1.0000 -0.0000 0.0015
vn 0.0015 -0.0000 1.0000
vn -0.0000 -1.0000 -0.0000
vn -0.0015 -0.0000 -1.0000
vn 1.0000 -0.0000 -0.0015
vt 0.625000 0.500000
vt 0.875000 0.500000
vt 0.875000 0.750000
vt 0.625000 0.750000
vt 0.375000 0.750000
vt 0.625000 1.000000
vt 0.375000 1.000000
vt 0.375000 0.000000
vt 0.625000 0.000000
vt 0.625000 0.250000
vt 0.375000 0.250000
vt 0.125000 0.500000
vt 0.375000 0.500000
vt 0.125000 0.750000
s 0
usemtl Material.011
f 57/105/37 59/108/37 63/107/37 61/106/37
f 60/109/38 64/111/38 63/110/38 59/108/38
f 64/112/39 62/115/39 61/114/39 63/113/39
f 62/116/40 64/118/40 60/109/40 58/117/40
f 58/117/41 60/109/41 59/108/41 57/105/41
f 62/115/42 58/117/42 57/105/42 61/114/42
