# Blender 5.1.0
# www.blender.org
mtllib teletransportador.mtl
o Cube
v 2.647679 -0.084087 1.096704
v 2.810760 0.084087 0.559095
v 2.810760 -0.084087 0.559095
v 2.865827 0.084087 -0.000000
v 2.865827 -0.084087 -0.000000
v 2.810760 0.084087 -0.559095
v 2.810760 -0.084087 -0.559095
v 2.647679 0.084087 -1.096704
v 2.647679 -0.084087 -1.096704
v 2.382848 0.084087 -1.592168
v 2.382848 -0.084087 -1.592168
v 2.026445 0.084087 -2.026445
v 2.026445 -0.084087 -2.026445
v 1.592168 0.084087 -2.382848
v 1.592168 -0.084087 -2.382848
v 1.096704 0.084087 -2.647679
v 1.096704 -0.084087 -2.647679
v 0.559095 0.084087 -2.810760
v 0.559095 -0.084087 -2.810760
v -0.000000 0.084087 -2.865827
v -0.000000 -0.084087 -2.865827
v 2.647679 0.084087 1.096704
v 2.382848 -0.084087 1.592168
v 2.382848 0.084087 1.592168
v 2.026445 -0.084087 2.026445
v 2.026445 0.084087 2.026445
v 1.592168 -0.084087 2.382848
v 1.592168 0.084087 2.382848
v 1.096704 -0.084087 2.647679
v 1.096704 0.084087 2.647679
v 0.559095 -0.084087 2.810760
v 0.559095 0.084087 2.810760
v -0.000000 -0.084087 2.865827
v -0.000000 0.084087 2.865827
v -0.559095 -0.084087 2.810760
v -0.559095 0.084087 2.810760
v -1.096704 -0.084087 2.647679
v -1.096704 0.084087 2.647679
v -1.592168 -0.084087 2.382848
v -1.592168 0.084087 2.382848
v -2.026445 -0.084087 2.026445
v -2.026445 0.084087 2.026445
v -2.382848 -0.084087 1.592168
v -2.382848 0.084087 1.592168
v -2.647679 -0.084087 1.096704
v -2.647679 0.084087 1.096704
v -2.810760 -0.084087 0.559095
v -2.810760 0.084087 0.559095
v -2.865827 -0.084087 -0.000000
v -2.865827 0.084087 -0.000000
v -2.810760 -0.084087 -0.559095
v -2.810760 0.084087 -0.559095
v -2.647679 -0.084087 -1.096704
v -2.647679 0.084087 -1.096704
v -2.382848 -0.084087 -1.592168
v -2.382848 0.084087 -1.592168
v -2.026445 -0.084087 -2.026445
v -2.026445 0.084087 -2.026445
v -1.592168 -0.084087 -2.382848
v -1.592168 0.084087 -2.382848
v -1.096704 -0.084087 -2.647679
v -1.096704 0.084087 -2.647679
v -0.559095 -0.084087 -2.810760
v -0.559095 0.084087 -2.810760
vn 0.0493 -0.9986 0.0204
vn 0.0524 0.9986 0.0104
vn 0.0524 -0.9986 0.0104
vn 0.0534 0.9986 -0.0000
vn 0.0534 -0.9986 -0.0000
vn 0.0524 0.9986 -0.0104
vn 0.0524 -0.9986 -0.0104
vn 0.0493 0.9986 -0.0204
vn 0.0493 -0.9986 -0.0204
vn 0.0444 0.9986 -0.0297
vn 0.0444 -0.9986 -0.0297
vn 0.0378 0.9986 -0.0378
vn 0.0378 -0.9986 -0.0378
vn 0.0297 0.9986 -0.0444
vn 0.0297 -0.9986 -0.0444
vn 0.0204 0.9986 -0.0493
vn 0.0204 -0.9986 -0.0493
vn 0.0104 0.9986 -0.0524
vn 0.0104 -0.9986 -0.0524
vn -0.0000 0.9986 -0.0534
vn -0.0000 -0.9986 -0.0534
vn 0.0493 0.9986 0.0204
vn 0.0444 -0.9986 0.0297
vn 0.0444 0.9986 0.0297
vn 0.0378 -0.9986 0.0378
vn 0.0378 0.9986 0.0378
vn 0.0297 -0.9986 0.0444
vn 0.0297 0.9986 0.0444
vn 0.0204 -0.9986 0.0493
vn 0.0204 0.9986 0.0493
vn 0.0104 -0.9986 0.0524
vn 0.0104 0.9986 0.0524
vn -0.0000 -0.9986 0.0534
vn -0.0000 0.9986 0.0534
vn -0.0104 -0.9986 0.0524
vn -0.0104 0.9986 0.0524
vn -0.0204 -0.9986 0.0493
vn -0.0204 0.9986 0.0493
vn -0.0297 -0.9986 0.0444
vn -0.0297 0.9986 0.0444
vn -0.0378 -0.9986 0.0378
vn -0.0378 0.9986 0.0378
vn -0.0444 -0.9986 0.0297
vn -0.0444 0.9986 0.0297
vn -0.0493 -0.9986 0.0204
vn -0.0493 0.9986 0.0204
vn -0.0524 -0.9986 0.0104
vn -0.0524 0.9986 0.0104
vn -0.0534 -0.9986 -0.0000
vn -0.0534 0.9986 -0.0000
vn -0.0524 -0.9986 -0.0104
vn -0.0524 0.9986 -0.0104
vn -0.0493 -0.9986 -0.0204
vn -0.0493 0.9986 -0.0204
vn -0.0444 -0.9986 -0.0297
vn -0.0444 0.9986 -0.0297
vn -0.0378 -0.9986 -0.0378
vn -0.0378 0.9986 -0.0378
vn -0.0297 -0.9986 -0.0444
vn -0.0297 0.9986 -0.0444
vn -0.0204 -0.9986 -0.0493
vn -0.0204 0.9986 -0.0493
vn -0.0104 -0.9986 -0.0524
vn -0.0104 0.9986 -0.0524
vt 1.000000 1.000000
vt 0.968750 0.500000
vt 1.000000 0.500000
vt 0.968750 1.000000
vt 0.937500 0.500000
vt 0.937500 1.000000
vt 0.906250 0.500000
vt 0.906250 1.000000
vt 0.875000 0.500000
vt 0.875000 1.000000
vt 0.843750 0.500000
vt 0.843750 1.000000
vt 0.812500 0.500000
vt 0.812500 1.000000
vt 0.781250 0.500000
vt 0.781250 1.000000
vt 0.750000 0.500000
vt 0.750000 1.000000
vt 0.718750 0.500000
vt 0.718750 1.000000
vt 0.687500 0.500000
vt 0.687500 1.000000
vt 0.656250 0.500000
vt 0.656250 1.000000
vt 0.625000 0.500000
vt 0.625000 1.000000
vt 0.593750 0.500000
vt 0.593750 1.000000
vt 0.562500 0.500000
vt 0.562500 1.000000
vt 0.531250 0.500000
vt 0.531250 1.000000
vt 0.500000 0.500000
vt 0.500000 1.000000
vt 0.468750 0.500000
vt 0.468750 1.000000
vt 0.437500 0.500000
vt 0.437500 1.000000
vt 0.406250 0.500000
vt 0.406250 1.000000
vt 0.375000 0.500000
vt 0.375000 1.000000
vt 0.343750 0.500000
vt 0.343750 1.000000
vt 0.312500 0.500000
vt 0.312500 1.000000
vt 0.281250 0.500000
vt 0.281250 1.000000
vt 0.250000 0.500000
vt 0.250000 1.000000
vt 0.218750 0.500000
vt 0.218750 1.000000
vt 0.187500 0.500000
vt 0.187500 1.000000
vt 0.156250 0.500000
vt 0.156250 1.000000
vt 0.125000 0.500000
vt 0.125000 1.000000
vt 0.093750 0.500000
vt 0.093750 1.000000
vt 0.062500 0.500000
vt 0.616663 0.050447
vt 0.550447 0.383337
vt 0.883337 0.449553
vt 0.062500 1.000000
vt 0.031250 0.500000
vt 0.031250 1.000000
vt 0.000000 0.500000
vt 0.080294 0.080294
vt 0.419706 0.080294
vt 0.419706 0.419706
vt 0.919706 0.419706
vt 0.949553 0.383337
vt 0.971731 0.341844
vt 0.985388 0.296822
vt 0.990000 0.250000
vt 0.985388 0.203178
vt 0.971731 0.158156
vt 0.949553 0.116663
vt 0.919706 0.080294
vt 0.883337 0.050447
vt 0.841844 0.028269
vt 0.796822 0.014612
vt 0.750000 0.010000
vt 0.703178 0.014612
vt 0.658156 0.028269
vt 0.580294 0.080294
vt 0.550447 0.116663
vt 0.528269 0.158156
vt 0.514612 0.203178
vt 0.510000 0.250000
vt 0.514612 0.296822
vt 0.528269 0.341844
vt 0.580294 0.419706
vt 0.616663 0.449553
vt 0.658156 0.471731
vt 0.703178 0.485388
vt 0.750000 0.490000
vt 0.796822 0.485388
vt 0.841844 0.471731
vt 0.000000 1.000000
vt 0.383337 0.449553
vt 0.341844 0.471731
vt 0.296822 0.485388
vt 0.250000 0.490000
vt 0.203178 0.485388
vt 0.158156 0.471731
vt 0.116663 0.449553
vt 0.080294 0.419706
vt 0.050447 0.383337
vt 0.028269 0.341844
vt 0.014612 0.296822
vt 0.010000 0.250000
vt 0.014612 0.203178
vt 0.028269 0.158156
vt 0.050447 0.116663
vt 0.116663 0.050447
vt 0.158156 0.028269
vt 0.203178 0.014612
vt 0.250000 0.010000
vt 0.296822 0.014612
vt 0.341844 0.028269
vt 0.383337 0.050447
vt 0.449553 0.116663
vt 0.471731 0.158156
vt 0.485388 0.203178
vt 0.490000 0.250000
vt 0.485388 0.296822
vt 0.471731 0.341844
vt 0.449553 0.383337
s 1
usemtl Material.001
f 18/1/18 17/2/17 19/3/19
f 12/4/12 11/5/11 13/2/13
f 14/6/14 13/7/13 15/5/15
f 6/8/6 5/9/5 7/7/7
f 8/10/8 7/11/7 9/9/9
f 16/12/16 15/13/15 17/11/17
f 20/14/20 19/15/19 21/13/21
f 10/16/10 9/17/9 11/15/11
f 4/18/4 3/19/3 5/17/5
f 2/20/2 1/21/1 3/19/3
f 22/22/22 23/23/23 1/21/1
f 24/24/24 25/25/25 23/23/23
f 26/26/26 27/27/27 25/25/25
f 28/28/28 29/29/29 27/27/27
f 30/30/30 31/31/31 29/29/29
f 32/32/32 33/33/33 31/31/31
f 34/34/34 35/35/35 33/33/33
f 36/36/36 37/37/37 35/35/35
f 38/38/38 39/39/39 37/37/37
f 40/40/40 41/41/41 39/39/39
f 42/42/42 43/43/43 41/41/41
f 44/44/44 45/45/45 43/43/43
f 46/46/46 47/47/47 45/45/45
f 48/48/48 49/49/49 47/47/47
f 50/50/50 51/51/51 49/49/49
f 52/52/52 53/53/53 51/51/51
f 54/54/54 55/55/55 53/53/53
f 56/56/56 57/57/57 55/55/55
f 58/58/58 59/59/59 57/57/57
f 60/60/60 61/61/61 59/59/59
f 39/62/39 55/63/55 15/64/15
f 62/65/62 63/66/63 61/61/61
f 64/67/64 21/68/21 63/66/63
f 42/69/42 26/70/26 12/71/12
f 18/1/18 16/4/16 17/2/17
f 12/4/12 10/6/10 11/5/11
f 14/6/14 12/8/12 13/7/13
f 6/8/6 4/10/4 5/9/5
f 8/10/8 6/12/6 7/11/7
f 16/12/16 14/14/14 15/13/15
f 20/14/20 18/16/18 19/15/19
f 10/16/10 8/18/8 9/17/9
f 4/18/4 2/20/2 3/19/3
f 2/20/2 22/22/22 1/21/1
f 22/22/22 24/24/24 23/23/23
f 24/24/24 26/26/26 25/25/25
f 26/26/26 28/28/28 27/27/27
f 28/28/28 30/30/30 29/29/29
f 30/30/30 32/32/32 31/31/31
f 32/32/32 34/34/34 33/33/33
f 34/34/34 36/36/36 35/35/35
f 36/36/36 38/38/38 37/37/37
f 38/38/38 40/40/40 39/39/39
f 40/40/40 42/42/42 41/41/41
f 42/42/42 44/44/44 43/43/43
f 44/44/44 46/46/46 45/45/45
f 46/46/46 48/48/48 47/47/47
f 48/48/48 50/50/50 49/49/49
f 50/50/50 52/52/52 51/51/51
f 52/52/52 54/54/54 53/53/53
f 54/54/54 56/56/56 55/55/55
f 56/56/56 58/58/58 57/57/57
f 58/58/58 60/60/60 59/59/59
f 60/60/60 62/65/62 61/61/61
f 15/64/15 13/72/13 11/73/11
f 11/73/11 9/74/9 7/75/7
f 7/75/7 5/76/5 3/77/3
f 3/77/3 1/78/1 23/79/23
f 23/79/23 25/80/25 27/81/27
f 27/81/27 29/82/29 31/83/31
f 31/83/31 33/84/33 35/85/35
f 35/85/35 37/86/37 39/62/39
f 39/62/39 41/87/41 43/88/43
f 43/88/43 45/89/45 47/90/47
f 47/90/47 49/91/49 51/92/51
f 51/92/51 53/93/53 55/63/55
f 55/63/55 57/94/57 59/95/59
f 59/95/59 61/96/61 63/97/63
f 63/97/63 21/98/21 19/99/19
f 19/99/19 17/100/17 15/64/15
f 15/64/15 11/73/11 7/75/7
f 7/75/7 3/77/3 23/79/23
f 23/79/23 27/81/27 31/83/31
f 31/83/31 35/85/35 39/62/39
f 39/62/39 43/88/43 47/90/47
f 47/90/47 51/92/51 55/63/55
f 55/63/55 59/95/59 63/97/63
f 63/97/63 19/99/19 15/64/15
f 15/64/15 7/75/7 23/79/23
f 23/79/23 31/83/31 39/62/39
f 39/62/39 47/90/47 55/63/55
f 55/63/55 63/97/63 15/64/15
f 15/64/15 23/79/23 39/62/39
f 62/65/62 64/67/64 63/66/63
f 64/67/64 20/101/20 21/68/21
f 12/71/12 14/102/14 16/103/16
f 16/103/16 18/104/18 20/105/20
f 20/105/20 64/106/64 62/107/62
f 62/107/62 60/108/60 58/109/58
f 58/109/58 56/110/56 54/111/54
f 54/111/54 52/112/52 50/113/50
f 50/113/50 48/114/48 46/115/46
f 46/115/46 44/116/44 42/69/42
f 42/69/42 40/117/40 38/118/38
f 38/118/38 36/119/36 34/120/34
f 34/120/34 32/121/32 30/122/30
f 30/122/30 28/123/28 26/70/26
f 26/70/26 24/124/24 22/125/22
f 22/125/22 2/126/2 4/127/4
f 4/127/4 6/128/6 8/129/8
f 8/129/8 10/130/10 12/71/12
f 12/71/12 16/103/16 20/105/20
f 20/105/20 62/107/62 58/109/58
f 58/109/58 54/111/54 50/113/50
f 50/113/50 46/115/46 42/69/42
f 42/69/42 38/118/38 34/120/34
f 34/120/34 30/122/30 26/70/26
f 26/70/26 22/125/22 4/127/4
f 4/127/4 8/129/8 12/71/12
f 12/71/12 20/105/20 58/109/58
f 58/109/58 50/113/50 42/69/42
f 42/69/42 34/120/34 26/70/26
f 26/70/26 4/127/4 12/71/12
f 12/71/12 58/109/58 42/69/42
o Cube.001
v -2.447435 2.603557 2.821173
v -2.495523 3.236280 2.821174
v -2.447435 3.869002 2.821174
v -2.305021 4.477409 2.821174
v -2.073752 5.038121 2.821174
v -1.762518 5.529589 2.821174
v -1.383277 5.932926 2.821174
v -0.950604 6.232632 2.821174
v -0.481127 6.417191 2.821174
v 0.007113 6.479508 2.821174
v -2.305021 1.995150 2.821173
v -2.073752 1.434438 2.821173
v -1.762518 0.942971 2.821173
v -1.383277 0.539634 2.821173
v -0.950604 0.239927 2.821173
v -0.481127 0.055369 2.821173
v 0.007113 -0.006949 2.821173
v 0.495353 0.055369 2.821173
v 0.964831 0.239927 2.821173
v 1.397503 0.539634 2.821173
v 1.776744 0.942971 2.821173
v 2.087979 1.434438 2.821173
v 2.319247 1.995150 2.821173
v 2.461662 2.603557 2.821173
v 2.509749 3.236280 2.821174
v 2.461662 3.869002 2.821174
v 2.319247 4.477409 2.821174
v 2.087979 5.038121 2.821174
v 1.776744 5.529589 2.821174
v 1.397503 5.932926 2.821174
v 0.964831 6.232632 2.821174
v 0.495353 6.417191 2.821174
v -2.447435 3.869002 2.932026
v -2.305021 4.477409 2.932026
v -2.073752 5.038121 2.932026
v -1.762518 5.529589 2.932026
v -2.495523 3.236280 2.932026
v -0.950604 6.232632 2.932026
v -0.481127 6.417191 2.932026
v 0.007113 6.479508 2.932026
v -1.383277 5.932926 2.932026
v -2.447435 2.603557 2.932025
v -2.305021 1.995150 2.932025
v -2.073752 1.434438 2.932025
v -1.762518 0.942971 2.932025
v -1.383277 0.539634 2.932025
v -0.950604 0.239927 2.932025
v -0.481127 0.055369 2.932025
v 0.007113 -0.006949 2.932025
v 0.495353 0.055369 2.932025
v 0.964831 0.239927 2.932025
v 1.397503 0.539634 2.932025
v 1.776744 0.942971 2.932025
v 2.087979 1.434438 2.932025
v 2.319247 1.995150 2.932025
v 2.461662 2.603557 2.932025
v 2.509749 3.236280 2.932026
v 2.461662 3.869002 2.932026
v 2.319247 4.477409 2.932026
v 2.087979 5.038121 2.932026
v 1.776744 5.529589 2.932026
v 1.397503 5.932926 2.932026
v 0.964831 6.232632 2.932026
v 0.495353 6.417191 2.932026
vn 0.0521 0.0080 0.9986
vn 0.0527 -0.0000 0.9986
vn 0.0521 -0.0080 0.9986
vn 0.0503 -0.0161 0.9986
vn 0.0471 -0.0244 0.9986
vn 0.0421 -0.0327 0.9986
vn 0.0350 -0.0406 0.9986
vn 0.0254 -0.0476 0.9985
vn 0.0134 -0.0525 0.9985
vn -0.0000 -0.0543 0.9985
vn 0.0503 0.0161 0.9986
vn 0.0471 0.0244 0.9986
vn 0.0421 0.0327 0.9986
vn 0.0350 0.0406 0.9986
vn 0.0254 0.0476 0.9985
vn 0.0134 0.0525 0.9985
vn -0.0000 0.0543 0.9985
vn -0.0134 0.0525 0.9985
vn -0.0254 0.0476 0.9985
vn -0.0350 0.0406 0.9986
vn -0.0421 0.0327 0.9986
vn -0.0471 0.0244 0.9986
vn -0.0503 0.0162 0.9986
vn -0.0521 0.0080 0.9986
vn -0.0527 -0.0000 0.9986
vn -0.0521 -0.0080 0.9986
vn -0.0503 -0.0161 0.9986
vn -0.0471 -0.0244 0.9986
vn -0.0421 -0.0327 0.9986
vn -0.0350 -0.0406 0.9986
vn -0.0254 -0.0476 0.9985
vn -0.0134 -0.0525 0.9985
vn 0.0521 -0.0080 -0.9986
vn 0.0503 -0.0161 -0.9986
vn 0.0471 -0.0244 -0.9986
vn 0.0421 -0.0327 -0.9986
vn 0.0527 -0.0000 -0.9986
vn 0.0254 -0.0476 -0.9985
vn 0.0134 -0.0525 -0.9985
vn -0.0000 -0.0543 -0.9985
vn 0.0350 -0.0406 -0.9986
vn 0.0521 0.0080 -0.9986
vn 0.0503 0.0161 -0.9986
vn 0.0471 0.0244 -0.9986
vn 0.0421 0.0327 -0.9986
vn 0.0350 0.0406 -0.9986
vn 0.0254 0.0476 -0.9985
vn 0.0134 0.0525 -0.9985
vn -0.0000 0.0543 -0.9985
vn -0.0134 0.0525 -0.9985
vn -0.0254 0.0476 -0.9985
vn -0.0350 0.0406 -0.9986
vn -0.0421 0.0327 -0.9986
vn -0.0471 0.0244 -0.9986
vn -0.0503 0.0161 -0.9986
vn -0.0521 0.0080 -0.9986
vn -0.0527 -0.0000 -0.9986
vn -0.0521 -0.0080 -0.9986
vn -0.0503 -0.0161 -0.9986
vn -0.0471 -0.0244 -0.9986
vn -0.0421 -0.0327 -0.9986
vn -0.0350 -0.0406 -0.9986
vn -0.0254 -0.0476 -0.9985
vn -0.0134 -0.0525 -0.9985
vt 0.158156 0.028269
vt 0.028269 0.341844
vt 0.341844 0.471731
vt 0.080294 0.080294
vt 0.419706 0.080294
vt 0.419706 0.419706
vt 0.485388 0.203178
vt 0.471731 0.158156
vt 0.014612 0.203178
vt 0.010000 0.250000
vt 0.449553 0.116663
vt 0.014612 0.296822
vt 0.383337 0.050447
vt 0.050447 0.383337
vt 0.341844 0.028269
vt 0.471731 0.341844
vt 0.485388 0.296822
vt 0.080294 0.419706
vt 0.296822 0.014612
vt 0.449553 0.383337
vt 0.116663 0.449553
vt 0.250000 0.010000
vt 0.490000 0.250000
vt 0.158156 0.471731
vt 0.203178 0.014612
vt 0.203178 0.485388
vt 0.296822 0.485388
vt 0.250000 0.490000
vt 0.116663 0.050447
vt 0.383337 0.449553
vt 0.050447 0.116663
vt 0.028269 0.158156
s 1
usemtl Material.001
f 83/131/83 91/132/91 72/133/72
f 117/134/117 109/135/109 100/136/100
f 65/137/65 107/138/107 75/138/75
f 88/139/88 121/140/121 89/140/89
f 75/138/75 108/141/108 76/141/76
f 89/140/89 122/142/122 90/142/90
f 76/141/76 109/135/109 77/135/77
f 91/132/91 122/142/122 123/132/123
f 77/135/77 110/143/110 78/143/78
f 91/132/91 124/144/124 92/144/92
f 78/143/78 111/145/111 79/145/79
f 68/146/68 97/147/97 67/147/67
f 92/144/92 125/148/125 93/148/93
f 79/145/79 112/149/112 80/149/80
f 70/136/70 99/150/99 69/150/69
f 93/148/93 126/151/126 94/151/94
f 80/149/80 113/152/113 81/152/81
f 67/147/67 101/153/101 66/153/66
f 94/151/94 127/154/127 95/154/95
f 81/152/81 114/155/114 82/155/82
f 69/150/69 98/146/98 68/146/68
f 96/156/96 127/154/127 128/156/128
f 82/155/82 115/131/115 83/131/83
f 73/157/73 102/133/102 72/133/72
f 96/156/96 104/158/104 74/158/74
f 83/131/83 116/159/116 84/159/84
f 74/158/74 103/157/103 73/157/73
f 85/134/85 116/159/116 117/134/117
f 71/160/71 100/136/100 70/136/70
f 85/134/85 118/161/118 86/161/86
f 72/133/72 105/160/105 71/160/71
f 86/161/86 119/162/119 87/162/87
f 66/153/66 106/137/106 65/137/65
f 88/139/88 119/162/119 120/139/120
f 72/133/72 71/160/71 70/136/70
f 70/136/70 69/150/69 68/146/68
f 68/146/68 67/147/67 66/153/66
f 66/153/66 65/137/65 75/138/75
f 75/138/75 76/141/76 77/135/77
f 77/135/77 78/143/78 79/145/79
f 79/145/79 80/149/80 81/152/81
f 81/152/81 82/155/82 83/131/83
f 83/131/83 84/159/84 85/134/85
f 85/134/85 86/161/86 87/162/87
f 87/162/87 88/139/88 89/140/89
f 89/140/89 90/142/90 91/132/91
f 91/132/91 92/144/92 93/148/93
f 93/148/93 94/151/94 95/154/95
f 95/154/95 96/156/96 74/158/74
f 74/158/74 73/157/73 72/133/72
f 72/133/72 70/136/70 68/146/68
f 68/146/68 66/153/66 75/138/75
f 75/138/75 77/135/77 79/145/79
f 79/145/79 81/152/81 83/131/83
f 83/131/83 85/134/85 87/162/87
f 87/162/87 89/140/89 91/132/91
f 91/132/91 93/148/93 95/154/95
f 95/154/95 74/158/74 72/133/72
f 72/133/72 68/146/68 75/138/75
f 75/138/75 79/145/79 83/131/83
f 83/131/83 87/162/87 91/132/91
f 91/132/91 95/154/95 72/133/72
f 72/133/72 75/138/75 83/131/83
f 100/136/100 105/160/105 102/133/102
f 102/133/102 103/157/103 104/158/104
f 104/158/104 128/156/128 127/154/127
f 127/154/127 126/151/126 125/148/125
f 125/148/125 124/144/124 123/132/123
f 123/132/123 122/142/122 121/140/121
f 121/140/121 120/139/120 119/162/119
f 119/162/119 118/161/118 117/134/117
f 117/134/117 116/159/116 115/131/115
f 115/131/115 114/155/114 113/152/113
f 113/152/113 112/149/112 111/145/111
f 111/145/111 110/143/110 109/135/109
f 109/135/109 108/141/108 107/138/107
f 107/138/107 106/137/106 101/153/101
f 101/153/101 97/147/97 98/146/98
f 98/146/98 99/150/99 100/136/100
f 100/136/100 102/133/102 104/158/104
f 104/158/104 127/154/127 125/148/125
f 125/148/125 123/132/123 121/140/121
f 121/140/121 119/162/119 117/134/117
f 117/134/117 115/131/115 113/152/113
f 113/152/113 111/145/111 109/135/109
f 109/135/109 107/138/107 101/153/101
f 101/153/101 98/146/98 100/136/100
f 100/136/100 104/158/104 125/148/125
f 125/148/125 121/140/121 117/134/117
f 117/134/117 113/152/113 109/135/109
f 109/135/109 101/153/101 100/136/100
f 100/136/100 125/148/125 117/134/117
f 65/137/65 106/137/106 107/138/107
f 88/139/88 120/139/120 121/140/121
f 75/138/75 107/138/107 108/141/108
f 89/140/89 121/140/121 122/142/122
f 76/141/76 108/141/108 109/135/109
f 91/132/91 90/142/90 122/142/122
f 77/135/77 109/135/109 110/143/110
f 91/132/91 123/132/123 124/144/124
f 78/143/78 110/143/110 111/145/111
f 68/146/68 98/146/98 97/147/97
f 92/144/92 124/144/124 125/148/125
f 79/145/79 111/145/111 112/149/112
f 70/136/70 100/136/100 99/150/99
f 93/148/93 125/148/125 126/151/126
f 80/149/80 112/149/112 113/152/113
f 67/147/67 97/147/97 101/153/101
f 94/151/94 126/151/126 127/154/127
f 81/152/81 113/152/113 114/155/114
f 69/150/69 99/150/99 98/146/98
f 96/156/96 95/154/95 127/154/127
f 82/155/82 114/155/114 115/131/115
f 73/157/73 103/157/103 102/133/102
f 96/156/96 128/156/128 104/158/104
f 83/131/83 115/131/115 116/159/116
f 74/158/74 104/158/104 103/157/103
f 85/134/85 84/159/84 116/159/116
f 71/160/71 105/160/105 100/136/100
f 85/134/85 117/134/117 118/161/118
f 72/133/72 102/133/102 105/160/105
f 86/161/86 118/161/118 119/162/119
f 66/153/66 101/153/101 106/137/106
f 88/139/88 87/162/87 119/162/119
